<svg xmlns="http://www.w3.org/2000/svg" width="900" height="463" viewBox="0 0 900 463" role="img" aria-labelledby="title desc">
<title id="title">Preço em coins: Jogadores baratos EA FC: Meio-campistas em 17/07 — PC</title>
<desc id="desc">Gráfico gerado a partir da tabela publicada neste artigo.</desc>
<rect width="100%" height="100%" rx="20" fill="#0f172a"/>
<text x="28" y="42" fill="#f8fafc" font-family="system-ui,sans-serif" font-size="23" font-weight="700">Preço em coins</text>
<text x="28" y="70" fill="#94a3b8" font-family="system-ui,sans-serif" font-size="15">Dados do recorte publicado no artigo</text>
<text x="28" y="117" fill="#e2e8f0" font-family="system-ui,sans-serif" font-size="16">Caleb Yirenkyi</text>
<rect x="285" y="95" width="480" height="28" rx="7" fill="#38bdf8"/>
<text x="775" y="116" fill="#f8fafc" font-family="system-ui,sans-serif" font-size="15" font-weight="700">12.750</text>
<text x="28" y="175" fill="#e2e8f0" font-family="system-ui,sans-serif" font-size="16">Vitinha</text>
<rect x="285" y="153" width="94" height="28" rx="7" fill="#38bdf8"/>
<text x="389" y="174" fill="#f8fafc" font-family="system-ui,sans-serif" font-size="15" font-weight="700">2.500</text>
<text x="28" y="233" fill="#e2e8f0" font-family="system-ui,sans-serif" font-size="16">Mariona</text>
<rect x="285" y="211" width="113" height="28" rx="7" fill="#38bdf8"/>
<text x="408" y="232" fill="#f8fafc" font-family="system-ui,sans-serif" font-size="15" font-weight="700">3.000</text>
<text x="28" y="291" fill="#e2e8f0" font-family="system-ui,sans-serif" font-size="16">Pedri</text>
<rect x="285" y="269" width="124" height="28" rx="7" fill="#38bdf8"/>
<text x="419" y="290" fill="#f8fafc" font-family="system-ui,sans-serif" font-size="15" font-weight="700">3.300</text>
<text x="28" y="349" fill="#e2e8f0" font-family="system-ui,sans-serif" font-size="16">Federico Valverde</text>
<rect x="285" y="327" width="147" height="28" rx="7" fill="#38bdf8"/>
<text x="442" y="348" fill="#f8fafc" font-family="system-ui,sans-serif" font-size="15" font-weight="700">3.900</text>
<text x="28" y="407" fill="#e2e8f0" font-family="system-ui,sans-serif" font-size="16">Simone Laudehr</text>
<rect x="285" y="385" width="433" height="28" rx="7" fill="#38bdf8"/>
<text x="728" y="406" fill="#f8fafc" font-family="system-ui,sans-serif" font-size="15" font-weight="700">11.500</text>
</svg>
