<svg xmlns="http://www.w3.org/2000/svg" width="900" height="463" viewBox="0 0 900 463" role="img" aria-labelledby="title desc">
<title id="title">Preço em coins: Jogadores baratos EA FC: Meio-campistas em 21/07 — PC</title>
<desc id="desc">Gráfico gerado a partir da tabela publicada neste artigo.</desc>
<rect width="100%" height="100%" rx="20" fill="#0f172a"/>
<text x="28" y="42" fill="#f8fafc" font-family="system-ui,sans-serif" font-size="23" font-weight="700">Preço em coins</text>
<text x="28" y="70" fill="#94a3b8" font-family="system-ui,sans-serif" font-size="15">Dados do recorte publicado no artigo</text>
<text x="28" y="117" fill="#e2e8f0" font-family="system-ui,sans-serif" font-size="16">Stephen Eustáquio</text>
<rect x="285" y="95" width="430" height="28" rx="7" fill="#38bdf8"/>
<text x="725" y="116" fill="#f8fafc" font-family="system-ui,sans-serif" font-size="15" font-weight="700">13.000</text>
<text x="28" y="175" fill="#e2e8f0" font-family="system-ui,sans-serif" font-size="16">Gustavo Puerta</text>
<rect x="285" y="153" width="430" height="28" rx="7" fill="#38bdf8"/>
<text x="725" y="174" fill="#f8fafc" font-family="system-ui,sans-serif" font-size="15" font-weight="700">13.000</text>
<text x="28" y="233" fill="#e2e8f0" font-family="system-ui,sans-serif" font-size="16">Noah Sadiki</text>
<rect x="285" y="211" width="480" height="28" rx="7" fill="#38bdf8"/>
<text x="775" y="232" fill="#f8fafc" font-family="system-ui,sans-serif" font-size="15" font-weight="700">14.500</text>
<text x="28" y="291" fill="#e2e8f0" font-family="system-ui,sans-serif" font-size="16">Vitinha</text>
<rect x="285" y="269" width="139" height="28" rx="7" fill="#38bdf8"/>
<text x="434" y="290" fill="#f8fafc" font-family="system-ui,sans-serif" font-size="15" font-weight="700">4.200</text>
<text x="28" y="349" fill="#e2e8f0" font-family="system-ui,sans-serif" font-size="16">Federico Valverde</text>
<rect x="285" y="327" width="156" height="28" rx="7" fill="#38bdf8"/>
<text x="451" y="348" fill="#f8fafc" font-family="system-ui,sans-serif" font-size="15" font-weight="700">4.700</text>
<text x="28" y="407" fill="#e2e8f0" font-family="system-ui,sans-serif" font-size="16">Unai López</text>
<rect x="285" y="385" width="447" height="28" rx="7" fill="#38bdf8"/>
<text x="742" y="406" fill="#f8fafc" font-family="system-ui,sans-serif" font-size="15" font-weight="700">13.500</text>
</svg>
