<svg xmlns="http://www.w3.org/2000/svg" width="900" height="463" viewBox="0 0 900 463" role="img" aria-labelledby="title desc">
<title id="title">Variação em 7 dias: Investimentos EA FC: Meio-campistas em 23/07 — Console (PS)</title>
<desc id="desc">Gráfico gerado a partir da tabela publicada neste artigo.</desc>
<rect width="100%" height="100%" rx="20" fill="#0f172a"/>
<text x="28" y="42" fill="#f8fafc" font-family="system-ui,sans-serif" font-size="23" font-weight="700">Variação em 7 dias</text>
<text x="28" y="70" fill="#94a3b8" font-family="system-ui,sans-serif" font-size="15">Dados do recorte publicado no artigo</text>
<text x="28" y="117" fill="#e2e8f0" font-family="system-ui,sans-serif" font-size="16">Franziska Harsch</text>
<rect x="285" y="95" width="480" height="28" rx="7" fill="#22c55e"/>
<text x="775" y="116" fill="#f8fafc" font-family="system-ui,sans-serif" font-size="15" font-weight="700">+86.4%</text>
<text x="28" y="175" fill="#e2e8f0" font-family="system-ui,sans-serif" font-size="16">Toni Kroos</text>
<rect x="285" y="153" width="176" height="28" rx="7" fill="#22c55e"/>
<text x="471" y="174" fill="#f8fafc" font-family="system-ui,sans-serif" font-size="15" font-weight="700">+31.7%</text>
<text x="28" y="233" fill="#e2e8f0" font-family="system-ui,sans-serif" font-size="16">Paul Wanner</text>
<rect x="285" y="211" width="150" height="28" rx="7" fill="#22c55e"/>
<text x="445" y="232" fill="#f8fafc" font-family="system-ui,sans-serif" font-size="15" font-weight="700">+27.0%</text>
<text x="28" y="291" fill="#e2e8f0" font-family="system-ui,sans-serif" font-size="16">Thelo Aasgaard</text>
<rect x="285" y="269" width="139" height="28" rx="7" fill="#22c55e"/>
<text x="434" y="290" fill="#f8fafc" font-family="system-ui,sans-serif" font-size="15" font-weight="700">+25.0%</text>
<text x="28" y="349" fill="#e2e8f0" font-family="system-ui,sans-serif" font-size="16">Paula Fernández</text>
<rect x="285" y="327" width="136" height="28" rx="7" fill="#22c55e"/>
<text x="431" y="348" fill="#f8fafc" font-family="system-ui,sans-serif" font-size="15" font-weight="700">+24.5%</text>
<text x="28" y="407" fill="#e2e8f0" font-family="system-ui,sans-serif" font-size="16">Rose Lavelle</text>
<rect x="285" y="385" width="134" height="28" rx="7" fill="#22c55e"/>
<text x="429" y="406" fill="#f8fafc" font-family="system-ui,sans-serif" font-size="15" font-weight="700">+24.2%</text>
</svg>
